<?xml version="1.0" encoding="iso-8859-1"?>
<!-- Uploaded to: SVG Repo, www.svgrepo.com, Generator: SVG Repo Mixer Tools -->
<!DOCTYPE svg PUBLIC "-//W3C//DTD SVG 1.1//EN" "http://www.w3.org/Graphics/SVG/1.1/DTD/svg11.dtd">
<svg fill="#000000" height="400px" width="400px" version="1.1" id="Capa_1" xmlns="http://www.w3.org/2000/svg" xmlns:xlink="http://www.w3.org/1999/xlink" 
	 viewBox="0 0 427.214 427.214" xml:space="preserve">
<path d="M269.819,342.099c0.008,5.523-4.462,9.907-9.985,9.916l-0.969,0.199c-0.005,0-0.01,0-0.016,0
	c-5.516,0-9.991-4.566-9.999-10.083c-0.008-5.523,4.462-10.105,9.985-10.114l0.969,0.197c0.005,0,0.01,0,0.016,0
	C265.335,332.214,269.811,336.581,269.819,342.099z M312.975,299.214c-0.007,0-0.014,0-0.021,0l-0.973-0.194
	c-5.523,0.011-9.991,4.594-9.98,10.117c0.011,5.516,4.486,10.077,10,10.077c0.007,0,0.014,0,0.021,0l0.973-0.197
	c5.523-0.011,9.991-4.399,9.98-9.922C322.964,303.579,318.489,299.214,312.975,299.214z M363.607,378.214c0,5.523-4.477,10-10,10
	h-159c-5.523,0-10-4.477-10-10v-106c0-5.523,4.477-10,10-10h159c5.523,0,10,4.477,10,10V378.214z M204.607,368.214h139v-86h-139
	v16.61l69.449-0.001c5.522,0,9.928,4.477,9.928,10c0,5.523-4.429,10-9.952,10l-69.425,0.001v13.39h21.852c5.523,0,10,4.477,10,10
	s-4.477,10-10,10h-21.853V368.214z M90.02,67.791c1.681-44.888,38.679-66.604,72.342-67.785c0.233-0.009,0.468-0.009,0.701,0
	c33.664,1.181,70.661,22.896,72.343,67.784c1.387,37.101-12.441,67.066-37.939,82.215c-10.719,6.367-22.736,9.551-34.754,9.551
	c-12.017,0-24.035-3.184-34.753-9.551C102.461,134.857,88.633,104.891,90.02,67.791z M120.388,39.475
	c12.326,4.939,26.977,7.814,42.325,8.227c15.349-0.413,30-3.288,42.326-8.227c-10.161-12.536-26.371-18.825-42.326-19.467
	C146.758,20.65,130.549,26.938,120.388,39.475z M138.175,132.81c15.136,8.992,33.941,8.993,49.077,0
	c19.006-11.292,29.274-34.718,28.168-64.272c-0.148-3.947-0.67-7.642-1.521-11.087c-14.927,6.201-32.598,9.79-50.934,10.251
	c-0.168,0.005-0.335,0.005-0.503,0c-18.336-0.461-36.006-4.05-50.934-10.251c-0.851,3.446-1.374,7.141-1.521,11.088
	C108.901,98.093,119.168,121.519,138.175,132.81z M366.579,407.214H181.424c-5.523,0-10,4.477-10,10s4.477,10,10,10h185.155
	c5.523,0,10-4.477,10-10S372.102,407.214,366.579,407.214z M143.36,202.396c31.421-6.968,64.116,3.242,79.512,24.827
	c3.207,4.498,9.453,5.542,13.948,2.334c4.497-3.207,5.542-9.452,2.334-13.948c-10.29-14.427-25.833-25.084-44.947-30.818
	c-17.499-5.25-37.093-5.931-55.177-1.921c-34.717,7.699-58.889,30.899-64.66,62.061L50.802,372.165
	c-0.542,2.921,0.245,5.932,2.145,8.216s4.717,3.605,7.688,3.605l76.971-0.002c5.523,0,10-4.478,10-10c0-5.523-4.478-10-10-10
	l-64.948,0.001l21.378-115.412C100.178,215.406,130.576,205.231,143.36,202.396z"/>
</svg>